HIERARCHY
ROOT Hips
{
	OFFSET 0.00000 0.00000 0.00000
	CHANNELS 6 Xposition Yposition Zposition Zrotation Yrotation Xrotation 
	JOINT LHipJoint
	{
		OFFSET 0 0 0
		CHANNELS 3 Zrotation Yrotation Xrotation
		JOINT LeftUpLeg
		{
			OFFSET 1.40252 -1.71424 0.59123
			CHANNELS 3 Zrotation Yrotation Xrotation
			JOINT LeftLeg
			{
				OFFSET 2.50071 -6.87065 0.00000
				CHANNELS 3 Zrotation Yrotation Xrotation
				JOINT LeftFoot
				{
					OFFSET 2.50834 -6.89162 0.00000
					CHANNELS 3 Zrotation Yrotation Xrotation
					JOINT LeftToeBase
					{
						OFFSET 0.21528 -0.59149 1.64448
						CHANNELS 3 Zrotation Yrotation Xrotation
						End Site
						{
							OFFSET 0.00000 -0.00000 0.87921
						}
					}
				}
			}
		}
	}
	JOINT RHipJoint
	{
		OFFSET 0 0 0
		CHANNELS 3 Zrotation Yrotation Xrotation
		JOINT RightUpLeg
		{
			OFFSET -1.53651 -1.71424 0.59123
			CHANNELS 3 Zrotation Yrotation Xrotation
			JOINT RightLeg
			{
				OFFSET -2.45783 -6.75285 0.00000
				CHANNELS 3 Zrotation Yrotation Xrotation
				JOINT RightFoot
				{
					OFFSET -2.51921 -6.92147 0.00000
					CHANNELS 3 Zrotation Yrotation Xrotation
					JOINT RightToeBase
					{
						OFFSET -0.21777 -0.59831 1.59676
						CHANNELS 3 Zrotation Yrotation Xrotation
						End Site
						{
							OFFSET -0.00000 -0.00000 0.85779
						}
					}
				}
			}
		}
	}
	JOINT LowerBack
	{
		OFFSET 0 0 0
		CHANNELS 3 Zrotation Yrotation Xrotation
		JOINT Spine
		{
			OFFSET 0.02212 2.07622 0.03776
			CHANNELS 3 Zrotation Yrotation Xrotation
			JOINT Spine1
			{
				OFFSET -0.00949 2.08009 -0.00123
				CHANNELS 3 Zrotation Yrotation Xrotation
				JOINT Neck
				{
					OFFSET 0 0 0
					CHANNELS 3 Zrotation Yrotation Xrotation
					JOINT Neck1
					{
						OFFSET 0.00288 1.67184 0.11155
						CHANNELS 3 Zrotation Yrotation Xrotation
						JOINT Head
						{
							OFFSET -0.02412 1.66997 -0.22040
							CHANNELS 3 Zrotation Yrotation Xrotation
							End Site
							{
								OFFSET -0.01026 1.69043 -0.08683
							}
						}
					}
				}
				JOINT LeftShoulder
				{
					OFFSET 0 0 0
					CHANNELS 3 Zrotation Yrotation Xrotation
					JOINT LeftArm
					{
						OFFSET 3.97941 0.74048 0.81462
						CHANNELS 3 Zrotation Yrotation Xrotation
						JOINT LeftForeArm
						{
							OFFSET 5.01834 -0.00000 -0.00000
							CHANNELS 3 Zrotation Yrotation Xrotation
							JOINT LeftHand
							{
								OFFSET 3.48690 -0.00000 0.00000
								CHANNELS 3 Zrotation Yrotation Xrotation
								JOINT LeftFingerBase
								{
									OFFSET 0 0 0
									CHANNELS 3 Zrotation Yrotation Xrotation
									JOINT LeftHandIndex1
									{
										OFFSET 0.76799 -0.00000 0.00000
										CHANNELS 3 Zrotation Yrotation Xrotation
										End Site
										{
											OFFSET 0.61917 -0.00000 0.00000
										}
									}
								}
								JOINT LThumb
								{
									OFFSET 0 0 0
									CHANNELS 3 Zrotation Yrotation Xrotation
									End Site
									{
										OFFSET 0.62863 -0.00000 0.62863
									}
								}
							}
						}
					}
				}
				JOINT RightShoulder
				{
					OFFSET 0 0 0
					CHANNELS 3 Zrotation Yrotation Xrotation
					JOINT RightArm
					{
						OFFSET -3.88702 1.02123 0.44091
						CHANNELS 3 Zrotation Yrotation Xrotation
						JOINT RightForeArm
						{
							OFFSET -4.70164 -0.00000 0.00000
							CHANNELS 3 Zrotation Yrotation Xrotation
							JOINT RightHand
							{
								OFFSET -3.49911 -0.00000 0.00000
								CHANNELS 3 Zrotation Yrotation Xrotation
								JOINT RightFingerBase
								{
									OFFSET 0 0 0
									CHANNELS 3 Zrotation Yrotation Xrotation
									JOINT RightHandIndex1
									{
										OFFSET -0.73933 -0.00000 0.00000
										CHANNELS 3 Zrotation Yrotation Xrotation
										End Site
										{
											OFFSET -0.59607 -0.00000 0.00000
										}
									}
								}
								JOINT RThumb
								{
									OFFSET 0 0 0
									CHANNELS 3 Zrotation Yrotation Xrotation
									End Site
									{
										OFFSET -0.60517 -0.00000 0.60517
									}
								}
							}
						}
					}
				}
			}
		}
	}
}
MOTION
Frames: 12
Frame Time: .0083333
-13.1577 17.5286 -2.5055 0 0 0 0 0 0 -21 0 0 0 0 0 0 0 0 0 0 0 0 0 0 21 0 0 0 0 0 0 0 0 0 0 0 0 0 0 0 0 0 0 0 0 0 0 -16 0 0 21 0 0 11 0 0 0 -8 0 0 0 0 0 0 0 0 0 0 0 0 0 0 0 0 0 0 0 0 8 0 0 0 0 0 0 0 0 0 0 0 0 0 0 0 0 0
-13.1577 17.5286 -2.5055 -15.1875 85.1294 -7.7470 0.0000 0.0000 0.0000 -19.4236 1.1708 -10.1697 0.2546 3.2464 8.9656 0.4610 4.1216 -15.0021 0.0401 1.2926 3.5543 0.0000 0.0000 0.0000 15.5807 3.0589 -13.0673 -1.5280 -7.8046 22.1223 -1.0146 -5.5243 -21.7881 -0.3560 3.8335 -10.6086 -2.9668 3.0419 -4.9594 -0.5480 4.2494 0.1529 1.3966 2.0808 2.7598 -11.1510 -12.6818 -2.8642 1.2625 -16.2283 15.9845 0.9791 -8.3648 6.3781 -0.0000 -0.0000 0.0000 -92.2302 -0.6933 10.3659 15.1374 -24.3371 -3.2823 -0.0000 0.0000 -4.4797 20.5508 42.6489 14.2514 -7.1250 0.0000 -0.0000 -27.8154 72.8815 -18.7872 -0.0000 -0.0000 0.0000 96.0966 -4.1688 21.8971 -18.3335 28.5821 -4.7077 0.0000 0.0000 27.1919 -26.4418 8.6751 -4.2898 7.1250 -0.0000 -0.0000 0.3268 -20.3093 0.1931
-13.1637 17.5172 -2.5387 -14.1367 85.1616 -6.7671 0.0000 0.0000 0.0000 -19.6649 1.8169 -10.2230 0.2420 3.1659 8.7410 0.4665 3.5398 -14.6861 0.0248 1.0169 2.7952 0.0000 0.0000 0.0000 15.2844 2.3293 -14.0021 -1.6905 -8.1892 23.2903 -1.0337 -5.0329 -21.6492 -0.2816 3.4127 -9.4300 -2.5127 2.9719 -4.6790 -0.8002 4.1278 0.0963 0.8602 2.0317 2.6000 -10.2640 -12.6026 -1.6733 1.4571 -16.3747 13.3001 1.0880 -8.3841 5.2718 -0.0000 0.0000 0.0000 -91.5700 -0.7186 11.7573 15.2380 -24.4766 -3.3239 -0.0000 0.0000 -4.9390 21.0198 42.4721 14.5455 -7.1250 0.0000 -0.0000 -26.8800 72.9020 -18.1420 -0.0000 0.0000 0.0000 96.5118 -4.1542 20.9447 -18.1399 28.3360 -4.6155 0.0000 0.0000 27.2259 -26.3169 7.8811 -3.8798 7.1250 -0.0000 -0.0000 0.3776 -21.2009 0.2155
-13.1721 17.5074 -2.5718 -13.6898 85.2642 -6.3873 0.0000 0.0000 0.0000 -19.8600 2.1257 -10.1757 0.2292 3.0812 8.5048 0.4634 3.1973 -14.4280 0.0204 0.9212 2.5320 0.0000 0.0000 0.0000 15.0808 1.8407 -14.8893 -1.8738 -8.5980 24.5458 -1.0515 -4.8969 -21.7239 -0.2402 3.1539 -8.7074 -1.9931 2.9051 -4.3565 -1.0593 4.0086 0.0551 0.2799 1.9836 2.4346 -9.4208 -12.5531 -0.5431 1.7619 -16.5250 10.6261 1.2331 -8.4087 4.2153 -0.0000 0.0000 0.0000 -90.9331 -0.9158 12.8829 15.3245 -24.5962 -3.3598 -0.0000 0.0000 -5.4543 21.0050 42.4333 14.5244 -7.1250 0.0000 -0.0000 -26.8202 72.8644 -18.0787 -0.0000 0.0000 0.0000 96.9409 -4.1040 19.8074 -17.9154 28.0488 -4.5094 0.0000 0.0000 27.5746 -26.1991 7.3480 -3.6009 7.1250 -0.0000 -0.0000 0.4393 -21.8013 0.2447
-13.1840 17.5012 -2.6012 -14.0911 85.4166 -6.8430 0.0000 0.0000 0.0000 -19.9562 2.2259 -10.1730 0.2248 3.0519 8.4232 0.4653 2.9127 -14.2813 0.0253 1.0278 2.8254 0.0000 0.0000 0.0000 14.9907 1.5761 -15.7054 -2.0629 -8.9960 25.7827 -1.0410 -5.1647 -21.7949 -0.2256 3.0572 -8.4380 -1.2979 2.8062 -4.1063 -1.3844 3.8466 0.0834 -0.4607 1.9145 2.3943 -8.0963 -12.4637 1.7150 1.8766 -16.6722 5.4198 1.5575 -8.4228 2.3345 -0.0000 0.0000 0.0000 -90.2021 -1.3037 13.7646 15.4177 -24.7248 -3.3987 -0.0000 0.0000 -5.8824 20.5900 42.4165 14.2194 -7.1250 0.0000 -0.0000 -27.2983 72.7036 -18.3210 -0.0000 0.0000 0.0000 97.5122 -3.8649 18.6081 -17.6416 27.6958 -4.3814 0.0000 0.0000 28.2154 -26.0154 6.7542 -3.2853 7.1250 -0.0000 -0.0000 0.5495 -22.4723 0.2978
-13.1990 17.5008 -2.6258 -14.1692 85.5681 -6.9446 0.0000 0.0000 0.0000 -20.0733 2.4111 -10.3656 0.2329 3.1058 8.5735 0.4750 2.5870 -14.2206 0.0161 0.8190 2.2508 0.0000 0.0000 0.0000 14.8920 1.4902 -16.4965 -2.2533 -9.3749 26.9752 -1.0085 -5.6058 -21.7862 -0.2459 3.1913 -8.8118 -0.7303 2.6726 -3.9449 -1.6485 3.6479 0.1418 -1.0649 1.8249 2.4165 -7.8070 -12.5131 1.5242 2.2444 -16.7520 5.1799 1.6196 -8.4509 2.3013 -0.0000 -0.0000 0.0000 -89.5439 -1.7535 14.6108 15.4618 -24.7854 -3.4172 -0.0000 0.0000 -6.1904 20.4699 42.4091 14.1307 -7.1250 0.0000 -0.0000 -27.4307 72.6551 -18.3853 -0.0000 -0.0000 0.0000 97.9464 -3.5118 17.5402 -17.2881 27.2361 -4.2184 0.0000 0.0000 28.8566 -25.8885 5.9258 -2.8684 7.1250 -0.0000 -0.0000 0.6140 -23.3985 0.3197
-13.2273 17.5131 -2.6450 -17.5340 85.7220 -10.0760 0.0000 0.0000 0.0000 -19.8781 2.4329 -11.0152 0.2560 3.2551 8.9897 0.4805 2.3910 -14.1842 0.0007 0.1725 0.4738 0.0000 0.0000 0.0000 15.1034 1.7842 -17.5410 -2.4595 -9.7640 28.2157 -0.9854 -6.1354 -21.9310 -0.2248 3.0521 -8.4239 -0.4891 2.4755 -3.9824 -1.4293 3.3665 0.1511 -0.9897 1.6850 2.4433 -7.9668 -12.5252 1.2989 2.4818 -16.7662 4.9345 1.7088 -8.4542 2.2996 -0.0000 -0.0000 0.0000 -89.5792 -2.2592 15.2806 15.4575 -24.7795 -3.4154 -0.0000 0.0000 -6.3100 20.8953 42.5076 14.4645 -7.1250 0.0000 -0.0000 -27.1052 72.8872 -18.2915 -0.0000 -0.0000 0.0000 97.6979 -3.2314 16.7083 -17.0304 26.8979 -4.1011 0.0000 0.0000 29.2626 -25.6169 5.1991 -2.4879 7.1250 -0.0000 -0.0000 0.7947 -24.2176 0.3988
-13.2755 17.5329 -2.6589 -22.6848 85.9562 -14.6621 0.0000 0.0000 0.0000 -19.5439 2.0730 -12.1575 0.2909 3.4684 9.5856 0.4816 2.2238 -14.1081 0.0009 -0.1884 -0.5175 0.0000 0.0000 0.0000 15.4148 2.3650 -18.9659 -2.6804 -10.1588 29.4924 -0.9748 -6.6754 -22.2093 -0.1700 2.6564 -7.3236 -0.1845 2.2435 -3.9851 -1.2349 3.0344 -0.0466 -0.9854 1.5212 2.2414 -8.0289 -12.4584 1.2096 2.7379 -16.6854 4.5863 1.8075 -8.4083 2.2267 0.0000 -0.0000 0.0000 -89.5591 -2.6612 16.0881 15.5142 -24.8576 -3.4392 -0.0000 0.0000 -6.5495 21.3858 42.7332 14.8819 -7.1250 0.0000 -0.0000 -26.9573 73.2490 -18.3936 0.0000 -0.0000 0.0000 97.5121 -3.1275 16.1541 -16.9443 26.7842 -4.0622 0.0000 0.0000 29.2041 -26.2683 4.8241 -2.3767 7.1250 -0.0000 -0.0000 0.2981 -24.6031 0.1469
-13.3157 17.5368 -2.6693 -26.1471 86.2419 -17.9359 0.0000 0.0000 0.0000 -19.4181 1.9611 -12.7673 0.3127 3.5951 9.9402 0.4854 1.8787 -13.9776 0.0016 -0.2567 -0.7052 0.0000 0.0000 0.0000 15.5406 2.7516 -19.7803 -2.8547 -10.4561 30.4667 -0.9628 -7.0191 -22.3485 -0.1268 2.2958 -6.3239 -0.1216 2.0531 -3.8229 -1.0348 2.7704 -0.0543 -0.8376 1.3885 2.1309 -8.0888 -12.4200 1.1673 3.0016 -16.6444 4.1473 1.9131 -8.3816 2.1182 -0.0000 0.0000 0.0000 -89.6228 -3.2452 16.8462 15.5008 -24.8392 -3.4336 -0.0000 0.0000 -6.5182 21.3001 42.7909 14.8347 -7.1250 0.0000 -0.0000 -27.1835 73.2660 -18.5637 -0.0000 0.0000 0.0000 97.2291 -2.9710 15.6999 -16.8957 26.7200 -4.0403 0.0000 0.0000 29.0583 -26.5439 4.5369 -2.2628 7.1250 -0.0000 -0.0000 0.0834 -24.9109 0.0405
-13.3340 17.5330 -2.6772 -27.9992 86.4381 -19.9442 0.0000 0.0000 0.0000 -19.4071 2.1814 -12.8107 0.3177 3.6235 10.0196 0.4891 1.5223 -13.8502 0.0035 -0.3794 -1.0424 0.0000 0.0000 0.0000 15.5804 3.0335 -20.0277 -3.0003 -10.6956 31.2599 -0.9588 -7.0740 -22.3530 -0.0839 1.8684 -5.1421 -0.0085 1.9385 -3.5674 -0.9612 2.6092 0.0476 -0.8417 1.3086 2.0915 -8.0407 -12.4403 1.0680 3.2404 -16.6765 3.9017 1.9803 -8.3918 2.0756 -0.0000 0.0000 0.0000 -89.5009 -3.7808 17.5484 15.4607 -24.7840 -3.4168 -0.0000 0.0000 -6.3029 20.9559 42.6822 14.5546 -7.1250 0.0000 -0.0000 -27.3856 73.0531 -18.5842 -0.0000 0.0000 0.0000 97.1927 -2.9173 14.9948 -16.8188 26.6183 -4.0058 0.0000 0.0000 29.6025 -27.0617 4.7317 -2.4132 7.1250 -0.0000 -0.0000 -0.2984 -24.6694 -0.1466
-13.3520 17.5326 -2.6812 -32.9142 86.5242 -25.0071 0.0000 0.0000 0.0000 -19.1235 2.2448 -12.8184 0.3248 3.6630 10.1305 0.4889 1.3606 -13.7706 0.0040 -0.4095 -1.1252 0.0000 0.0000 0.0000 15.8673 3.3201 -20.3221 -3.1724 -10.9690 32.1753 -0.9957 -6.9013 -22.5516 -0.0866 1.8977 -5.2231 0.2683 1.8507 -3.4413 -0.8028 2.4763 0.2109 -0.8423 1.2442 2.1912 -8.0448 -12.4679 0.8818 3.4309 -16.7087 3.7629 2.0303 -8.4034 2.0839 -0.0000 0.0000 0.0000 -89.4021 -4.3272 18.4444 15.5017 -24.8404 -3.4339 -0.0000 0.0000 -6.3256 20.9695 42.6815 14.5643 -7.1250 0.0000 -0.0000 -27.3671 73.0574 -18.5737 -0.0000 0.0000 0.0000 97.1062 -2.7886 14.4520 -16.7143 26.4796 -3.9591 0.0000 0.0000 30.2118 -27.9301 5.0147 -2.6532 7.1250 -0.0000 -0.0000 -0.9359 -24.3081 -0.4677
-13.3624 17.5309 -2.6827 -37.1065 86.5992 -29.4093 0.0000 0.0000 0.0000 -18.9085 2.2624 -12.6346 0.3255 3.6668 10.1410 0.4849 1.3141 -13.6960 0.0032 -0.3646 -1.0018 0.0000 0.0000 0.0000 16.0996 3.5213 -20.4457 -3.3284 -11.2086 32.9867 -1.0640 -6.3325 -22.7473 -0.1443 2.4485 -6.7468 0.5372 1.7590 -3.0673 -0.6990 2.3407 0.1714 -0.9067 1.1781 1.9449 -8.0800 -12.4392 0.8301 3.5314 -16.6722 3.8472 2.0619 -8.3849 2.1327 0.0000 -0.0000 0.0000 -89.2253 -4.4552 19.3294 15.6054 -24.9827 -3.4776 -0.0000 0.0000 -6.5360 21.0557 42.7563 14.6469 -7.1250 0.0000 -0.0000 -27.4147 73.1498 -18.6607 0.0000 -0.0000 0.0000 97.0459 -3.0887 14.1588 -16.6877 26.4443 -3.9473 0.0000 0.0000 30.6491 -29.0613 4.9494 -2.7449 7.1250 -0.0000 -0.0000 -1.7817 -24.3221 -0.8902
